<svg width="20" height="24" viewBox="0 0 20 24" fill="none" xmlns="http://www.w3.org/2000/svg">
<path d="M18.9664 8.02748C18.6473 8.27691 18.3487 8.48395 18.0799 8.72523C16.9608 9.72296 16.3966 10.9799 16.3777 12.5221C16.3636 13.6747 16.604 14.7361 17.2626 15.6653C17.8269 16.4641 18.5153 17.1309 19.4191 17.5157C19.5637 17.5776 19.5794 17.6559 19.5307 17.7977C19.1456 18.9145 18.6411 19.9692 17.9856 20.9425C17.5125 21.6468 17.019 22.3331 16.4217 22.9347C15.8622 23.4988 15.2114 23.9031 14.4318 23.9569C13.9965 23.9862 13.5375 23.8786 13.1084 23.7596C12.5442 23.6031 12.005 23.3553 11.4439 23.1841C10.3295 22.845 9.25286 23.0619 8.19348 23.4711C7.76124 23.6374 7.31958 23.7792 6.87634 23.9096C6.19733 24.1085 5.56391 23.9667 4.96192 23.6064C4.33321 23.2314 3.85853 22.6837 3.39957 22.1212C1.98969 20.3947 1.00576 18.4352 0.441498 16.2538C0.111425 14.9888 -0.0536109 13.7025 0.0155471 12.3901C0.103566 10.706 0.579814 9.17193 1.65333 7.87586C2.61212 6.71836 3.83496 6.03854 5.29042 5.80867C6.15175 5.67336 6.97536 5.84943 7.78482 6.14125C8.3931 6.36133 9.00137 6.58305 9.62222 6.75912C9.84699 6.8227 10.122 6.80803 10.35 6.73956C10.9802 6.54882 11.5932 6.29612 12.2188 6.09234C13.0157 5.83149 13.8236 5.62282 14.6739 5.71248C15.9738 5.85106 17.1746 6.24721 18.1695 7.1618C18.454 7.42264 18.6961 7.7324 18.9648 8.02584L18.9664 8.02748Z" fill="#C01C05"/>
<path d="M14.6519 0C14.7509 0.932517 14.5922 1.79982 14.1819 2.60192C13.5218 3.89147 12.5929 4.90876 11.2411 5.42393C10.8624 5.56902 10.4411 5.5951 10.0403 5.67336C9.86271 5.70759 9.80612 5.61956 9.80455 5.4386C9.79983 4.33816 10.1142 3.34206 10.7099 2.43889C11.6152 1.06457 12.8884 0.290189 14.4586 0.00978165C14.5152 0 14.5749 0.00326055 14.6503 0H14.6519Z" fill="#C01C05"/>
</svg>
