<svg width="20" height="24" viewBox="0 0 20 24" fill="none" xmlns="http://www.w3.org/2000/svg">
<path d="M3.65873 7.52623C7.88884 7.52623 12.1189 7.52623 16.3491 7.52623C16.3776 7.52623 16.4044 7.52442 16.433 7.52623C16.4991 7.53167 16.5276 7.50628 16.5223 7.43555C16.5133 7.30679 16.508 7.17622 16.5008 7.04746C16.5187 7.01663 16.5115 6.99124 16.4812 6.97492C16.4883 6.92595 16.4919 6.87699 16.4776 6.82802C16.4955 6.79538 16.4865 6.7718 16.4562 6.75548C16.4401 6.63398 16.4241 6.51066 16.408 6.38915C16.4169 6.36558 16.4044 6.35107 16.3848 6.342C16.3598 6.2205 16.333 6.09899 16.308 5.97748C16.3026 5.96842 16.2973 5.96116 16.2919 5.95209C16.2901 5.93577 16.2883 5.91764 16.2848 5.90132L16.2705 5.87955C16.2669 5.86142 16.2651 5.84328 16.2616 5.82515C16.258 5.81789 16.2526 5.81064 16.2473 5.8052C16.2509 5.75805 16.2259 5.71996 16.2134 5.67644C16.2098 5.66918 16.2044 5.66374 16.1991 5.6583C16.1955 5.64017 16.1919 5.62385 16.1901 5.60571C16.1848 5.59846 16.1794 5.5912 16.1741 5.58576C16.1705 5.56944 16.1687 5.55131 16.1651 5.53498C16.1598 5.52773 16.1526 5.52048 16.1473 5.51141L16.1169 5.41167C16.1169 5.41167 16.1044 5.39716 16.0991 5.3899C16.0884 5.35726 16.0794 5.32462 16.0687 5.29016C16.0616 5.28291 16.0562 5.27565 16.0491 5.26658C15.9902 5.13601 15.9348 5.00181 15.8687 4.87486C15.6366 4.43055 15.3545 4.02251 15.0224 3.64711C14.8134 3.40954 14.5867 3.19373 14.3474 2.99062C14.1295 2.80564 13.8992 2.64242 13.6653 2.47921C13.6581 2.47377 13.651 2.46651 13.6439 2.46107C13.601 2.46107 13.576 2.42661 13.5457 2.40485C13.5367 2.39941 13.5278 2.39397 13.5207 2.38853C13.4635 2.37765 13.4278 2.32868 13.3778 2.30692C13.3707 2.30148 13.3635 2.29604 13.3564 2.2906C13.3474 2.28697 13.3385 2.28335 13.3296 2.28153C13.3207 2.27609 13.3135 2.27246 13.3046 2.26702C13.2707 2.26702 13.2475 2.2507 13.2332 2.21987C13.2332 2.19448 13.2332 2.17091 13.2332 2.14552C13.2725 2.00044 13.3814 1.89163 13.4314 1.7538C13.4385 1.74836 13.4439 1.74292 13.4474 1.73748C13.5974 1.46908 13.7474 1.20068 13.8956 0.930461C14.0063 0.72916 14.1206 0.52786 14.226 0.321118C14.3045 0.166969 14.2045 -0.00531493 14.0421 0.000125622C13.9367 0.00375266 13.8813 0.0726664 13.8331 0.159715C13.5028 0.761803 13.1707 1.36208 12.8421 1.96598C12.8135 2.01676 12.7921 2.02039 12.7439 1.99681C12.4939 1.87893 12.2368 1.781 11.9707 1.71209C11.7047 1.64317 11.4422 1.55612 11.1672 1.52892C11.1583 1.52167 11.1511 1.51623 11.1422 1.50897C11.094 1.50897 11.0476 1.50535 10.9994 1.50353C10.9887 1.48177 10.9744 1.4727 10.9512 1.48358C10.9119 1.48358 10.8708 1.48177 10.8315 1.47996C10.8137 1.44913 10.7905 1.44006 10.7601 1.45819C10.6887 1.45819 10.6155 1.45638 10.544 1.45457C10.5351 1.43462 10.519 1.42374 10.4958 1.43281C9.71552 1.37477 8.94949 1.46908 8.19061 1.65587C8.18168 1.66312 8.17453 1.66856 8.16561 1.67582C8.13525 1.68126 8.10132 1.68126 8.07275 1.69032C7.8067 1.78281 7.53172 1.84991 7.27994 1.9823C7.21209 2.01857 7.17102 2.00769 7.13352 1.93696C6.99246 1.674 6.84425 1.41467 6.70141 1.15171C6.51927 0.819836 6.34071 0.484335 6.15858 0.152461C6.12644 0.0926151 6.08358 0.032769 6.01216 0.0237014C5.93002 0.0110067 5.84431 0.00375267 5.78717 0.0908016C5.73182 0.174223 5.73539 0.250391 5.7836 0.339254C6.10323 0.917766 6.41749 1.49809 6.73533 2.0766C6.7764 2.15096 6.81568 2.20718 6.70855 2.26521C5.88181 2.70045 5.19256 3.30254 4.63724 4.05878C3.91942 5.03627 3.5248 6.12982 3.48731 7.35213C3.48195 7.52623 3.48552 7.52804 3.65694 7.52804L3.65873 7.52623ZM13.0332 4.00075C13.3278 4.00437 13.5528 4.25645 13.5492 4.56838C13.5439 4.8658 13.2957 5.10155 12.9921 5.0943C12.6939 5.10518 12.4564 4.86942 12.4618 4.54662C12.4671 4.20749 12.6796 3.99531 13.0332 4.00075ZM6.99425 4.00075C7.28887 4.00075 7.54064 4.25101 7.54064 4.54662C7.54064 4.83497 7.25673 5.13964 6.97996 5.11425C6.68891 5.08886 6.45142 4.87849 6.44428 4.55206C6.43892 4.26008 6.66391 3.99531 6.99425 4.00075Z" fill="#C01C05"/>
<path d="M2.93197 9.09471C2.94983 9.06207 2.94269 9.03849 2.91055 9.02217C2.90162 8.96414 2.89269 8.90792 2.88198 8.84988C2.87662 8.84263 2.87126 8.83538 2.86591 8.82812C2.86412 8.8118 2.86055 8.79366 2.85876 8.77734C2.85341 8.77009 2.84626 8.76283 2.84091 8.75558C2.83198 8.69392 2.80162 8.64314 2.77305 8.59055C2.63913 8.33847 2.44093 8.14805 2.2088 7.99209C2.20166 7.98665 2.19452 7.98121 2.18559 7.97395C2.17666 7.97033 2.16773 7.96851 2.1588 7.96489C2.15166 7.95945 2.14452 7.95401 2.13738 7.94857C2.12845 7.94494 2.11952 7.94312 2.11059 7.9395C2.10345 7.93406 2.09631 7.92862 2.08916 7.92499C2.03202 7.90504 1.97489 7.88691 1.91775 7.86696C1.9106 7.86152 1.90346 7.85608 1.89632 7.85064C1.87846 7.84882 1.86239 7.84701 1.84454 7.84338C1.83561 7.83794 1.82846 7.8325 1.81954 7.82706C1.7874 7.82706 1.75704 7.82343 1.7249 7.82162C1.71419 7.79986 1.6999 7.79079 1.67669 7.80167C1.54098 7.77628 1.40528 7.77991 1.26778 7.80167C1.24457 7.79079 1.23029 7.80167 1.21957 7.82162C1.18386 7.82343 1.14815 7.82162 1.11422 7.83069C0.51247 7.98302 0.0589251 8.53252 0.0178561 9.16181C0.0124993 9.17088 0.00535683 9.18176 0 9.19083C0 9.20715 0 9.22347 0 9.23979C0.00178561 9.3613 0.00535683 9.4828 0.00535683 9.60431C0.00535683 11.5085 0.00535683 13.4127 0.00535683 15.3169C0.00535683 15.3731 0.0124993 15.4293 0.0142849 15.4855C0.00178561 15.5799 0.0232129 15.6705 0.0428547 15.7612C0.187489 16.4376 0.749956 16.9182 1.44099 16.9436C1.7999 16.9563 2.12131 16.8257 2.39629 16.5918C2.59271 16.425 2.75163 16.2237 2.83555 15.9716C2.84091 15.9643 2.84805 15.9553 2.85341 15.948C2.85519 15.9317 2.85876 15.9154 2.86055 15.899C2.8659 15.8918 2.87126 15.8827 2.8784 15.8755C2.86233 15.8138 2.9159 15.7648 2.91233 15.705C2.9409 15.6868 2.94626 15.6615 2.9284 15.6324C2.93376 15.5236 2.94269 15.413 2.94269 15.3042C2.93376 13.235 2.96411 11.1639 2.92662 9.09471H2.93197Z" fill="#C01C05"/>
<path d="M19.9988 9.46847C19.9988 9.36691 19.9685 9.26717 19.9881 9.16561C20.0096 9.12571 20.0024 9.09307 19.9631 9.06949C19.9631 9.0441 19.9631 9.02053 19.9631 8.99514C19.9738 8.97338 19.9649 8.95887 19.9453 8.94617C19.9417 8.9226 19.9381 8.89721 19.9346 8.87363C19.9292 8.86638 19.9238 8.85731 19.9185 8.85006C19.9167 8.83373 19.9131 8.81741 19.9114 8.79928C19.906 8.79202 19.8988 8.78296 19.8935 8.7757C19.8828 8.74306 19.8739 8.7086 19.8631 8.67596L19.8453 8.6542C19.7971 8.52544 19.7131 8.42025 19.6346 8.30963C19.5828 8.26066 19.531 8.2117 19.4792 8.16455C19.431 8.12284 19.3828 8.08112 19.3328 8.03941C19.3257 8.03397 19.3185 8.02672 19.3096 8.02128C19.2203 7.97957 19.1328 7.93786 19.0435 7.89615C19.0364 7.88889 19.0275 7.88345 19.0203 7.8762L18.9703 7.87982V7.87257C18.9703 7.87257 18.956 7.85988 18.9471 7.85262C18.915 7.85262 18.8846 7.85081 18.8525 7.84899C18.8346 7.81454 18.8096 7.81454 18.7793 7.82904C18.7793 7.82542 18.7811 7.81998 18.7828 7.81635C18.7632 7.78915 18.74 7.78189 18.7096 7.79822C18.5632 7.78915 18.415 7.7565 18.2757 7.83086C18.2597 7.83086 18.2436 7.83086 18.2275 7.83086C18.1918 7.81816 18.1597 7.83086 18.1311 7.85262C18.1097 7.84718 18.0918 7.84899 18.0793 7.87076C18.0436 7.86713 18.0132 7.88164 17.9865 7.9034C17.8829 7.92154 17.7954 7.97594 17.7168 8.04123C17.6847 8.04667 17.6633 8.0648 17.6454 8.09201C17.6133 8.09563 17.5918 8.11558 17.5758 8.14278C17.5204 8.18268 17.4722 8.23165 17.4311 8.28787C17.3972 8.31326 17.3615 8.33864 17.3544 8.3858C17.3258 8.40212 17.3097 8.42751 17.3026 8.46015C17.2794 8.47828 17.2615 8.50186 17.2579 8.5345C17.249 8.55083 17.2401 8.56715 17.2311 8.58347C17.224 8.59979 17.2151 8.61611 17.2079 8.63062C17.1936 8.66326 17.1794 8.69772 17.1633 8.73036C17.1365 8.7485 17.1472 8.77933 17.1383 8.80291C17.1133 8.82104 17.1222 8.85187 17.1133 8.87726C17.0508 9.03866 17.0544 9.20551 17.0544 9.37416C17.0562 11.369 17.0544 13.3621 17.0562 15.357C17.0562 15.4331 17.0651 15.5111 17.0704 15.5873C17.0615 15.736 17.1026 15.872 17.1633 16.0044C17.1704 16.0207 17.1776 16.037 17.1847 16.0534C17.1936 16.0697 17.2008 16.086 17.2097 16.1023C17.2383 16.1585 17.2651 16.2129 17.2936 16.2692C17.3026 16.3072 17.3329 16.3272 17.3597 16.349C17.3651 16.3562 17.3704 16.3635 17.3776 16.3707C17.3883 16.4161 17.4222 16.4433 17.4561 16.4686C17.4811 16.5067 17.5133 16.5412 17.5526 16.5648C17.5668 16.5956 17.5901 16.6137 17.6222 16.6192C17.6293 16.6246 17.6365 16.6319 17.6436 16.6373C17.6704 16.6718 17.6954 16.708 17.7436 16.7117C17.7508 16.7352 17.7722 16.7334 17.79 16.7389C17.8329 16.7788 17.8847 16.7969 17.9365 16.8187C17.9436 16.8205 17.9525 16.8223 17.9597 16.8259C17.9811 16.844 18.0007 16.864 18.0311 16.8549C18.0954 16.8966 18.1704 16.9039 18.2436 16.9148C18.2579 16.9329 18.2757 16.9311 18.2954 16.9275H18.3436C18.3793 16.9583 18.4204 16.9601 18.4632 16.951C18.5525 16.9656 18.64 16.951 18.7275 16.9275C18.7471 16.9311 18.7668 16.9329 18.7793 16.913C18.8203 16.9111 18.8614 16.913 18.8971 16.8839C18.9703 16.8858 19.04 16.8749 19.09 16.8132C19.1471 16.8114 19.1935 16.7824 19.2364 16.7479C19.2721 16.7352 19.3042 16.7189 19.3292 16.6881C19.3971 16.6573 19.4507 16.6083 19.5007 16.5539C19.5185 16.5376 19.5346 16.5212 19.5524 16.5049C19.6667 16.3997 19.7578 16.2764 19.8185 16.1313C19.8274 16.115 19.8346 16.0987 19.8435 16.0824C19.9292 15.9137 19.9738 15.7324 19.9792 15.5419C20.0006 15.4785 19.9917 15.4132 19.9935 15.3479C19.9935 13.3911 19.9935 11.4325 19.9935 9.47572L19.9988 9.46847Z" fill="#C01C05"/>
<path d="M16.574 12.7489C16.574 11.2545 16.574 9.75837 16.574 8.26403C16.574 8.19693 16.5937 8.12257 16.5294 8.0718C16.4812 8.01739 16.4169 8.04278 16.3598 8.04278C12.1207 8.04278 7.88169 8.04278 3.64444 8.04278C3.59265 8.04278 3.54087 8.04641 3.48909 8.04822C3.41767 8.09719 3.43909 8.17154 3.43909 8.23864C3.43909 9.43738 3.43909 10.6361 3.43909 11.8348C3.43909 13.7354 3.43909 15.6378 3.43909 17.5384C3.43909 17.6055 3.41945 17.678 3.48195 17.7324C3.50873 18.0026 3.58194 18.2583 3.72836 18.4886C3.7355 18.5231 3.76407 18.5431 3.78729 18.5648C3.79979 18.6102 3.83193 18.641 3.86764 18.6664C3.87478 18.6754 3.88192 18.6827 3.88907 18.6918C4.0587 18.913 4.28369 19.0545 4.5426 19.1433C4.56938 19.1687 4.60331 19.176 4.63902 19.1705C4.70331 19.2068 4.77294 19.2159 4.84437 19.2231C5.21578 19.2576 5.58718 19.2322 5.9568 19.2394C6.10858 19.2431 6.10858 19.2394 6.10858 19.399C6.10858 20.4291 6.10858 21.4592 6.10858 22.4893C6.10858 22.6307 6.11751 22.7722 6.16393 22.9064C6.16929 22.93 6.17465 22.9535 6.18 22.9753C6.19608 23.0152 6.21215 23.0569 6.22822 23.0968C6.24429 23.1294 6.26036 23.1621 6.27643 23.1947C6.33714 23.3162 6.40678 23.4305 6.51034 23.5194C6.53534 23.5574 6.5657 23.5919 6.60677 23.6155C6.63534 23.6626 6.67998 23.6898 6.7264 23.7134C6.74247 23.7406 6.76568 23.7587 6.79783 23.7624C6.9246 23.8657 7.0746 23.9183 7.23173 23.9492C7.24601 23.9528 7.26208 23.9582 7.27637 23.9618C7.52278 24.0126 7.76563 24.0126 8.00311 23.9165C8.03883 23.9165 8.06918 23.9038 8.09597 23.8821C8.11204 23.8821 8.12811 23.8784 8.14418 23.8766L8.2656 23.8095C8.35845 23.7569 8.44416 23.6989 8.51201 23.6137C8.53344 23.6173 8.55308 23.6137 8.56379 23.5919C8.59236 23.5574 8.62272 23.5248 8.65129 23.4903C8.66022 23.4758 8.66736 23.4631 8.67629 23.4486C8.70486 23.4269 8.73343 23.4033 8.7495 23.3688C8.762 23.338 8.80485 23.3253 8.79771 23.2836C8.86021 23.2165 8.89949 23.1385 8.9227 23.0515C8.92806 23.0442 8.93342 23.037 8.94056 23.0297C8.94413 23.0116 8.94592 22.9952 8.94949 22.9771C8.95484 22.9699 8.9602 22.9644 8.96556 22.9572C8.96913 22.939 8.97091 22.9227 8.97449 22.9046C8.97984 22.8973 8.9852 22.8901 8.98877 22.8828C8.98877 22.7667 9.05662 22.6597 9.03341 22.5401C9.0352 22.4875 9.03877 22.4349 9.03877 22.3823C9.03877 21.3812 9.03877 20.3783 9.03877 19.3773C9.03877 19.3301 9.0227 19.2793 9.06019 19.2376H10.9583C10.9958 19.2793 10.9797 19.3301 10.9797 19.3773C10.9797 20.3747 10.9887 21.3721 10.9779 22.3714C10.9708 22.9753 11.1869 23.4504 11.685 23.7859C11.685 23.7986 11.6868 23.8077 11.7029 23.8004C11.7118 23.8041 11.7208 23.8059 11.7297 23.8095C11.7297 23.824 11.7333 23.8331 11.7511 23.8258C12.2618 24.0707 12.7653 24.067 13.2439 23.7533C13.5492 23.5538 13.7635 23.2763 13.8438 22.9082C13.8456 22.8991 13.8474 22.8919 13.8492 22.8828C13.8546 22.8756 13.8599 22.8683 13.8635 22.861C13.9081 22.6543 13.9081 22.4457 13.9081 22.2354C13.9063 21.2815 13.9081 20.3257 13.9046 19.3718C13.9046 19.2721 13.9296 19.2394 14.0295 19.2431C14.2492 19.2503 14.4688 19.2449 14.6902 19.2449C14.8741 19.2449 15.0581 19.254 15.2402 19.2159C15.5902 19.1415 15.8812 18.9602 16.1259 18.699C16.1473 18.6881 16.1526 18.67 16.1473 18.6482C16.1741 18.6228 16.2008 18.5956 16.2276 18.5703L16.2473 18.5213C16.3223 18.4252 16.3883 18.3236 16.4169 18.2003C16.4223 18.193 16.4294 18.1858 16.4348 18.1785C16.4366 18.1622 16.4401 18.1441 16.4419 18.1278L16.458 18.106C16.4598 18.0897 16.4633 18.0734 16.4651 18.0552C16.4848 18.0443 16.4937 18.0298 16.4848 18.0081C16.4937 17.9101 16.5008 17.8122 16.5098 17.7143C16.6026 17.6707 16.5776 17.5837 16.5776 17.5112C16.5776 15.9261 16.5776 14.3429 16.5776 12.7579L16.574 12.7489Z" fill="#C01C05"/>
</svg>
